<svg xmlns="http://www.w3.org/2000/svg" xmlns:lucid="lucid" width="426.67" height="462.56"><path d="M368 21.27c-80.43 7.18-155.44 41.83-212.67 99.3-17.78 17.75-29.38 32.1-43.7 54.1-13.52 20.27-18.55 29.56-28.22 50.7-17 38.87-25.9 77.74-28.2 122.53l-.8 17.75-8.1 13.1C35.07 397.75 20 428.6 20 432.4c0 4.24 5.4 10.16 8.9 10.16 5.02 0 8.1-4.23 18.94-26.2 6.2-11.4 13.92-26.2 17.8-32.54l7.33-11.4 17.8-1.28c41.75-3.8 78.1-13.1 113.67-29.15 66.12-30 124.12-82.83 157.37-143.68 5.43-9.72 5.8-12.68 2.33-17.33-2.32-2.96-3.86-2.96-18.17-3.8l-15.85-.85 27.46-15.64c19.72-10.98 28.23-16.47 29.77-19 3.1-6.34 11.22-37.6 13.92-53.67 2.7-16.48 5.42-42.68 5.42-54.5 0-5.92-.78-7.6-3.48-10.15-2.72-2.96-4.27-3.38-12.77-3.38-5.42 0-15.47.85-22.43 1.27zm18.56 25.35c0 15.64-6.96 56.2-13.53 76.48l-2.32 8.03-40.98 23.24c-22.43 13.1-42.15 24.5-43.7 25.78-4.63 3.8-4.63 10.56 0 14.37 3.5 2.53 5.42 2.53 29 2.53h25.14l-2.7 5.07c-1.55 2.96-8.9 13.1-15.86 22.4-22.43 30.42-54.9 60-88.16 80.7-27.45 17.33-69.2 33.8-102.08 40.57-18.56 3.8-41.76 6.75-42.92 5.48-1.55-1.26 24.36-34.22 48.72-62.1 6.96-7.62 22.8-24.94 35.57-38.04 19.72-20.7 23.2-24.93 23.2-28.74 0-5.07-4.25-9.3-9.28-9.3-4.64 0-6.57 1.7-30.93 27.47-30.55 32.54-56.07 62.12-76.95 89.16l-3.1 4.23.78-9.72c2.7-32.96 15.47-74.8 34.03-110.7 16.63-32.12 34.8-56.2 61.48-82.4 32.1-30.85 66.9-53.25 107.88-69.73 29.4-11.82 71.53-21.12 97.83-21.54h8.9v6.76z" fill="#5887e5" lucid:page-tab-id="0_0"/></svg>